[FRAME]
media_type=video
stream_index=0
key_frame=1
pts=0
pts_time=0.000000
pkt_dts=0
pkt_dts_time=0.000000
best_effort_timestamp=0
best_effort_timestamp_time=0.000000
duration=166
duration_time=0.166000
pkt_pos=651
pkt_size=14428
width=512
height=256
crop_top=0
crop_bottom=0
crop_left=0
crop_right=0
pix_fmt=yuv420p
sample_aspect_ratio=1:1
pict_type=I
interlaced_frame=0
top_field_first=0
repeat_pict=0
color_range=unknown
color_space=unknown
color_primaries=unknown
color_transfer=unknown
chroma_location=left
[/FRAME]
[FRAME]
media_type=video
stream_index=0
key_frame=0
pts=167
pts_time=0.167000
pkt_dts=167
pkt_dts_time=0.167000
best_effort_timestamp=167
best_effort_timestamp_time=0.167000
duration=166
duration_time=0.166000
pkt_pos=15085
pkt_size=11
width=512
height=256
crop_top=0
crop_bottom=0
crop_left=0
crop_right=0
pix_fmt=yuv420p
sample_aspect_ratio=1:1
pict_type=P
interlaced_frame=0
top_field_first=0
repeat_pict=0
color_range=unknown
color_space=unknown
color_primaries=unknown
color_transfer=unknown
chroma_location=left
[/FRAME]
[FRAME]
media_type=video
stream_index=0
key_frame=0
pts=333
pts_time=0.333000
pkt_dts=333
pkt_dts_time=0.333000
best_effort_timestamp=333
best_effort_timestamp_time=0.333000
duration=166
duration_time=0.166000
pkt_pos=15102
pkt_size=11
width=512
height=256
crop_top=0
crop_bottom=0
crop_left=0
crop_right=0
pix_fmt=yuv420p
sample_aspect_ratio=1:1
pict_type=P
interlaced_frame=0
top_field_first=0
repeat_pict=0
color_range=unknown
color_space=unknown
color_primaries=unknown
color_transfer=unknown
chroma_location=left
[/FRAME]
[FRAME]
media_type=video
stream_index=0
key_frame=0
pts=500
pts_time=0.500000
pkt_dts=500
pkt_dts_time=0.500000
best_effort_timestamp=500
best_effort_timestamp_time=0.500000
duration=166
duration_time=0.166000
pkt_pos=15119
pkt_size=11
width=512
height=256
crop_top=0
crop_bottom=0
crop_left=0
crop_right=0
pix_fmt=yuv420p
sample_aspect_ratio=1:1
pict_type=P
interlaced_frame=0
top_field_first=0
repeat_pict=0
color_range=unknown
color_space=unknown
color_primaries=unknown
color_transfer=unknown
chroma_location=left
[/FRAME]
[FRAME]
media_type=video
stream_index=0
key_frame=0
pts=667
pts_time=0.667000
pkt_dts=667
pkt_dts_time=0.667000
best_effort_timestamp=667
best_effort_timestamp_time=0.667000
duration=166
duration_time=0.166000
pkt_pos=15136
pkt_size=11
width=512
height=256
crop_top=0
crop_bottom=0
crop_left=0
crop_right=0
pix_fmt=yuv420p
sample_aspect_ratio=1:1
pict_type=P
interlaced_frame=0
top_field_first=0
repeat_pict=0
color_range=unknown
color_space=unknown
color_primaries=unknown
color_transfer=unknown
chroma_location=left
[/FRAME]
